<svg xmlns="http://www.w3.org/2000/svg" version="1.1" xmlns:xlink="http://www.w3.org/1999/xlink" xmlns:svgjs="http://svgjs.com/svgjs" width="1440" height="560" preserveAspectRatio="none" viewBox="0 0 1440 560"><g mask="url(&quot;#SvgjsMask1210&quot;)" fill="none"><rect width="1440" height="560" x="0" y="0" fill="url(#SvgjsLinearGradient1211)"></rect><path d="M647.25 653.04C809.75 634.5 885.2 287.72 1180.96 274.65 1476.72 261.58 1577.08 141.28 1714.67 140.25" stroke="rgba(255, 255, 255, 0.58)" stroke-width="2"></path><path d="M996.55 574.21C1108.77 559.82 1134.96 331.91 1359.13 303.4 1583.31 274.89 1609.77 48.72 1721.72 34.6" stroke="rgba(255, 255, 255, 0.58)" stroke-width="2"></path><path d="M341.52 660.28C463.47 647.67 537.96 386.35 747.19 384.76 956.43 383.17 950.03 454.76 1152.87 454.76 1355.7 454.76 1455.62 385.02 1558.54 384.76" stroke="rgba(255, 255, 255, 0.58)" stroke-width="2"></path><path d="M867.47 567.59C982.64 496.05 913.8 99.96 1128 91.93 1342.2 83.9 1515.21 214.3 1649.07 215.13" stroke="rgba(255, 255, 255, 0.58)" stroke-width="2"></path><path d="M489.34 626.88C627.14 596.71 676.99 240.72 895.25 234.91 1113.51 229.1 1098.21 304.91 1301.16 304.91 1504.12 304.91 1604.09 235.17 1707.07 234.91" stroke="rgba(255, 255, 255, 0.58)" stroke-width="2"></path></g><defs><mask id="SvgjsMask1210"><rect width="1440" height="560" fill="#ffffff"></rect></mask><linearGradient x1="15.28%" y1="-39.29%" x2="84.72%" y2="139.29%" gradientUnits="userSpaceOnUse" id="SvgjsLinearGradient1211"><stop stop-color="#0e2a47" offset="0"></stop><stop stop-color="rgba(22, 21, 21, 1)" offset="1"></stop></linearGradient></defs></svg>